# xmcd
#
# Track frame offsets: 
#        150
#        18077
#        33521
#        52065
#        68836
#        83872
#        101852
#        117956
#        132665
#        146946
#
# Disc length: 2248 seconds
#
# Revision: 0
# Processed by: cddbd v1.5.2PL0 Copyright (c) Steve Scherf et al.
# Submitted via: ExactAudioCopy v0.95b4
#
DISCID=9408c60a
DTITLE=Walter Schneider - Keine Sekunde
DYEAR=2014
DGENRE=Pop
TTITLE0=Keine Sekunde
TTITLE1=Sommerglück
TTITLE2=Stell Dir vor
TTITLE3=Könige der Welt
TTITLE4=Wir heben ab
TTITLE5=Hör nicht auf
TTITLE6=Freunde and Leid
TTITLE7=Komm doch vorbei
TTITLE8=Die Zeit zurück
TTITLE9=Zurück zu kommen
EXTD=
EXTT0=
EXTT1=
EXTT2=
EXTT3=
EXTT4=
EXTT5=
EXTT6=
EXTT7=
EXTT8=
EXTT9=
PLAYORDER=
